<svg width="283" height="88" viewBox="0 0 283 88" fill="none" xmlns="http://www.w3.org/2000/svg">
<path d="M38.7178 40.2496H49.9793L51.9613 45.2342H62.285L49.341 16.625H39.5256L26.5815 45.2342H36.7358L38.7178 40.2496ZM41.4839 33.2996L44.3525 26.093L47.2211 33.2996H41.4879H41.4839Z" fill="white"/>
<path d="M63.5538 41.2399C64.9723 42.5186 66.6509 43.5053 68.5817 44.1999C70.5164 44.8906 72.6166 45.2379 74.8902 45.2379C77.676 45.2379 80.1427 44.7603 82.2902 43.8092C84.4416 42.8541 86.2187 41.5044 87.6214 39.752L81.577 34.5385C80.7377 35.5568 79.8117 36.3461 78.799 36.9105C77.7863 37.4709 76.6436 37.7511 75.3709 37.7511C74.3701 37.7511 73.4638 37.5932 72.6521 37.2814C71.8404 36.9697 71.1429 36.5118 70.5637 35.912C69.9805 35.3121 69.5313 34.5859 69.2043 33.7374C68.8812 32.8888 68.7157 31.9416 68.7157 30.8958C68.7157 29.8499 68.8772 28.9027 69.2043 28.0542C69.5274 27.2057 69.9805 26.4795 70.5637 25.8796C71.1469 25.2797 71.8404 24.8219 72.6521 24.5101C73.4638 24.1983 74.3701 24.0405 75.3709 24.0405C76.6397 24.0405 77.7824 24.3207 78.799 24.8811C79.8117 25.4415 80.7377 26.2348 81.577 27.253L87.6214 22.0435C86.2147 20.2675 84.4376 18.9098 82.2902 17.9666C80.1427 17.0233 77.6721 16.5576 74.8902 16.5576C72.6205 16.5576 70.5164 16.9049 68.5817 17.5956C66.647 18.2862 64.9723 19.2729 63.5538 20.5556C62.1353 21.8343 61.032 23.3498 60.2479 25.1021C59.4637 26.8544 59.0697 28.7843 59.0697 30.8997C59.0697 33.0151 59.4598 34.949 60.2479 36.6973C61.032 38.4457 62.1353 39.9612 63.5538 41.2439V41.2399Z" fill="white"/>
<path d="M89.966 41.8679C91.3845 43.1466 93.0631 44.1332 94.9939 44.8278C96.9286 45.5185 99.0288 45.8658 101.302 45.8658C104.088 45.8658 106.555 45.3883 108.702 44.4371C110.854 43.482 112.631 42.1323 114.034 40.38L107.989 35.1665C107.15 36.1847 106.224 36.974 105.211 37.5384C104.199 38.0988 103.056 38.379 101.783 38.379C100.782 38.379 99.876 38.2212 99.0642 37.9094C98.2525 37.5976 97.5551 37.1398 96.9759 36.5399C96.3927 35.94 95.9435 35.2138 95.6164 34.3653C95.2933 33.5168 95.1278 32.5696 95.1278 31.5237C95.1278 30.4778 95.2894 29.5306 95.6164 28.6821C95.9396 27.8336 96.3927 27.1074 96.9759 26.5075C97.559 25.9076 98.2525 25.4498 99.0642 25.138C99.876 24.8263 100.782 24.6684 101.783 24.6684C103.052 24.6684 104.195 24.9486 105.211 25.509C106.224 26.0694 107.15 26.8627 107.989 27.881L114.034 22.6714C112.627 20.8954 110.85 19.5377 108.702 18.5945C106.555 17.6513 104.084 17.1855 101.302 17.1855C99.0327 17.1855 96.9286 17.5329 94.9939 18.2235C93.0592 18.9142 91.3845 19.9008 89.966 21.1835C88.5475 22.4622 87.4442 23.9777 86.66 25.73C85.8759 27.4823 85.4819 29.4123 85.4819 31.5277C85.4819 33.6431 85.872 35.5769 86.66 37.3253C87.4442 39.0736 88.5475 40.5891 89.966 41.8718V41.8679Z" fill="white"/>
<path d="M124.148 17.8086H114.577V45.2378H124.148V17.8086Z" fill="white"/>
<path d="M152.145 41.8087C153.579 40.5142 154.694 38.9947 155.49 37.2424C156.286 35.494 156.688 33.5839 156.688 31.5237C156.688 29.4636 156.29 27.5218 155.49 25.7853C154.694 24.0488 153.575 22.5332 152.145 21.2387C150.71 19.9443 149.02 18.9458 147.073 18.2432C145.127 17.5407 142.991 17.1855 140.666 17.1855C138.342 17.1855 136.237 17.5368 134.279 18.2432C132.317 18.9497 130.622 19.9482 129.188 21.2387C127.754 22.5332 126.639 24.0488 125.843 25.7853C125.047 27.5218 124.645 29.4359 124.645 31.5237C124.645 33.6115 125.043 35.494 125.843 37.2424C126.639 38.9947 127.754 40.5142 129.188 41.8087C130.622 43.1032 132.317 44.1017 134.279 44.8042C136.237 45.5106 138.381 45.8619 140.706 45.8619C143.031 45.8619 145.127 45.5106 147.073 44.8042C149.02 44.0977 150.71 43.0992 152.145 41.8087ZM146.549 34.4048C146.226 35.2533 145.773 35.9716 145.19 36.5596C144.607 37.1477 143.933 37.5976 143.161 37.9133C142.388 38.2251 141.557 38.383 140.666 38.383C139.776 38.383 138.944 38.2251 138.172 37.9133C137.4 37.6015 136.726 37.1477 136.143 36.5596C135.56 35.9716 135.111 35.2533 134.783 34.4048C134.46 33.5562 134.295 32.5972 134.295 31.5237C134.295 30.4502 134.456 29.4912 134.783 28.6427C135.107 27.7941 135.56 27.0758 136.143 26.4878C136.726 25.8997 137.4 25.4498 138.172 25.138C138.944 24.8262 139.776 24.6684 140.666 24.6684C141.557 24.6684 142.388 24.8262 143.161 25.138C143.933 25.4498 144.607 25.9037 145.19 26.4878C145.773 27.0758 146.222 27.7941 146.549 28.6427C146.872 29.4912 147.038 30.4502 147.038 31.5237C147.038 32.5972 146.876 33.5562 146.549 34.4048Z" fill="white"/>
<path d="M167.823 32.7664L178.612 45.2378H186.481V17.8086H177.154V30.28L166.365 17.8086H158.496V45.2378H167.823V32.7664Z" fill="white"/>
<path d="M20.7341 49.4884C18.8703 48.6517 16.6598 48.2334 14.1025 48.2334H0.918091V75.6626H10.1503V68.9217H14.1025C16.6598 68.9217 18.8664 68.4955 20.7341 67.6469C22.5979 66.7984 24.04 65.6026 25.0567 64.0634C26.0733 62.5203 26.5816 60.693 26.5816 58.5776C26.5816 56.4622 26.0733 54.627 25.0567 53.072C24.04 51.517 22.5979 50.3251 20.7341 49.4884ZM16.3524 60.9298C15.7377 61.506 14.792 61.7901 13.5154 61.7901H10.1503V55.365H13.5154C14.792 55.365 15.7377 55.6531 16.3524 56.2254C16.9632 56.8016 17.2705 57.583 17.2705 58.5776C17.2705 59.5721 16.9632 60.3535 16.3524 60.9298Z" fill="white"/>
<path d="M53.104 51.1938C51.721 49.8993 50.0936 48.9008 48.2141 48.1983C46.3345 47.4958 44.2777 47.1406 42.0317 47.1406C39.7857 47.1406 37.7603 47.4919 35.869 48.1983C33.9776 48.9048 32.3424 49.9033 30.9593 51.1938C29.5762 52.4883 28.5005 54.0038 27.7322 55.7404C26.9638 57.4769 26.5776 59.391 26.5776 61.4788C26.5776 63.5666 26.9638 65.4491 27.7322 67.2014C28.5005 68.9498 29.5762 70.4732 30.9593 71.7677C32.3424 73.0622 33.9776 74.0607 35.869 74.7671C37.7603 75.4736 39.8251 75.8248 42.0711 75.8248C44.3171 75.8248 46.3345 75.4736 48.2141 74.7671C50.0936 74.0607 51.721 73.0622 53.104 71.7677C54.4871 70.4732 55.5628 68.9537 56.3312 67.2014C57.0996 65.4531 57.4857 63.5429 57.4857 61.4788C57.4857 59.4147 57.0996 57.4769 56.3312 55.7404C55.5628 54.0038 54.4871 52.4883 53.104 51.1938ZM47.7058 64.3598C47.3945 65.2084 46.9571 65.9267 46.3936 66.5147C45.8341 67.1028 45.18 67.5527 44.4392 67.8645C43.6984 68.1762 42.8946 68.3341 42.0317 68.3341C41.1687 68.3341 40.3688 68.1762 39.6241 67.8645C38.8794 67.5527 38.2292 67.0988 37.6697 66.5147C37.1102 65.9267 36.6728 65.2084 36.3576 64.3598C36.0463 63.5113 35.8887 62.5523 35.8887 61.4788C35.8887 60.4053 36.0463 59.4463 36.3576 58.5977C36.6689 57.7492 37.1062 57.0309 37.6697 56.4429C38.2292 55.8548 38.8833 55.4049 39.6241 55.0931C40.3688 54.7813 41.1687 54.6235 42.0317 54.6235C42.8946 54.6235 43.6945 54.7813 44.4392 55.0931C45.184 55.4049 45.8341 55.8588 46.3936 56.4429C46.9532 57.0309 47.3905 57.7492 47.7058 58.5977C48.0171 59.4463 48.1747 60.4053 48.1747 61.4788C48.1747 62.5523 48.0171 63.5113 47.7058 64.3598Z" fill="white"/>
<path d="M77.3017 49.4884C75.4379 48.6517 73.2274 48.2334 70.6701 48.2334H57.4857V75.6626H66.718V68.9217H70.6701C73.2274 68.9217 75.434 68.4955 77.3017 67.6469C79.1655 66.7984 80.6077 65.6026 81.6243 64.0634C82.6409 62.5203 83.1492 60.693 83.1492 58.5776C83.1492 56.4622 82.6409 54.627 81.6243 53.072C80.6077 51.517 79.1655 50.3251 77.3017 49.4884ZM72.9201 60.9298C72.3054 61.506 71.3597 61.7901 70.083 61.7901H66.718V55.365H70.083C71.3597 55.365 72.3054 55.6531 72.9201 56.2254C73.5308 56.8016 73.8382 57.583 73.8382 58.5776C73.8382 59.5721 73.5308 60.3535 72.9201 60.9298Z" fill="white"/>
<path d="M100.755 62.5754C100.755 64.6671 100.384 66.1471 99.6395 67.0233C98.8948 67.8994 97.8742 68.3375 96.57 68.3375C95.2657 68.3375 94.2727 67.8994 93.5201 67.0233C92.7636 66.1471 92.3853 64.6671 92.3853 62.5754V47.7637H83.1531V62.8477C83.1531 66.9483 84.3273 70.1372 86.6757 72.4065C89.0242 74.6798 92.2947 75.8164 96.4951 75.8164C100.695 75.8164 103.966 74.6798 106.314 72.4065C108.663 70.1332 109.837 66.9483 109.837 62.8477V47.7637H100.762V62.5754H100.755Z" fill="white"/>
<path d="M119.558 47.7637H110.326V75.1928H131.919V68.0218H119.558V47.7637Z" fill="white"/>
<path d="M137.987 47.7637L126.016 75.1928H135.406L137.242 70.4135H147.657L149.493 75.1928H159.036L147.066 47.7637H137.991H137.987ZM139.796 63.7515L142.447 56.8449L145.099 63.7515H139.796Z" fill="white"/>
<path d="M176.622 75.351H186.481L180.732 66.917C182.265 66.1316 183.478 65.07 184.365 63.736C185.381 62.2087 185.89 60.3853 185.89 58.2699C185.89 56.1545 185.381 54.3193 184.365 52.7644C183.348 51.2094 181.906 50.0175 180.042 49.1808C178.179 48.3441 175.968 47.9258 173.411 47.9258H160.226V75.355H169.459V68.4602H171.972L176.618 75.355L176.622 75.351ZM175.665 55.9177C176.275 56.4939 176.583 57.2754 176.583 58.2699C176.583 59.2645 176.275 60.0459 175.665 60.6221C175.05 61.1983 174.104 61.4825 172.828 61.4825H169.462V55.0574H172.828C174.104 55.0574 175.05 55.3455 175.665 55.9177Z" fill="white"/>
<path d="M281.593 33.457C281.593 34.274 281.589 34.937 281.589 35.6593C281.593 52.4759 281.589 69.2886 281.593 86.1053C281.593 86.5157 281.593 86.7683 281.029 86.7683C263.625 86.7486 246.224 86.7486 228.82 86.7446C228.619 86.7446 228.418 86.7446 228.3 86.7446C246.008 69.0005 263.838 51.2446 281.593 33.457Z" fill="#E51A22"/>
<path d="M249.83 1.47778C248.537 2.76439 247.371 3.92865 246.209 5.09291C245.267 6.03221 244.298 6.94783 243.391 7.9187C239.861 11.6996 236.125 15.2792 232.48 18.9496C227.389 24.0763 222.259 29.1635 217.156 34.2783C212.802 38.6394 208.503 43.0478 204.098 47.3536C201.773 49.6229 196.655 54.5207 196.45 54.5878C196.45 54.5878 196.45 54.2878 196.45 54.1339C196.438 51.7383 196.422 49.3387 196.422 46.9431C196.426 32.009 196.438 17.0749 196.43 2.14082C196.43 1.6317 196.509 1.4541 197.08 1.4541C214.406 1.47383 231.728 1.47383 249.054 1.47383C249.254 1.47383 249.455 1.47383 249.834 1.47383L249.83 1.47778Z" fill="#E51A22"/>
<path d="M264.677 3.43945C266.139 3.54601 267.703 3.71966 269.267 4.03934C271.273 4.44979 273.149 5.16808 275.032 5.91795C276.025 6.31261 276.66 6.96381 277.05 7.98993C277.794 9.93958 278.472 11.9129 278.803 13.9691C279.114 15.8911 279.276 17.8447 279.047 19.7943C278.76 22.2649 278.2 24.6684 277.227 26.9733C275.82 30.3003 273.83 33.2406 271.407 35.8927C268.692 38.8685 265.67 41.4851 262.242 43.6242C261.844 43.8728 261.71 43.9044 261.584 43.3716C261.064 41.1694 260.016 39.2276 258.443 37.6134C257.305 36.4413 255.918 36.019 254.235 36.2558C251.95 36.5755 250.165 37.7871 248.439 39.1368C247.391 39.9538 219.528 66.4082 219.02 66.8423C218.303 67.458 218.157 68.1526 218.508 69.0445C218.776 69.7273 218.894 70.4653 218.922 71.2112C218.985 72.7978 218.472 74.1909 217.574 75.4657C216.542 76.9299 215.241 78.1297 213.882 79.286C212.282 80.6476 210.548 81.8001 208.732 82.8499C208.354 83.0669 208.165 82.9998 207.908 82.7354C206.246 81.0186 204.567 79.3176 202.908 77.5969C201.226 75.8485 199.567 74.0725 197.876 72.3321C197.514 71.9571 197.451 71.7046 197.766 71.2388C198.94 69.5102 200.15 67.825 201.549 66.2582C202.916 64.7269 204.382 63.3377 206.202 62.3747C207.522 61.6761 208.886 61.4354 210.414 61.7945C211.305 62.0037 212.117 62.3786 212.976 62.6352C213.441 62.7733 213.823 62.7417 214.126 62.4063C214.765 61.6959 240.629 36.1532 242.008 34.7127C243.454 33.2011 244.798 31.5909 245.633 29.6333C246.441 27.735 246.701 25.8327 245.381 24.0646C244.569 22.9793 243.419 22.2413 242.28 21.5151C241.334 20.9112 240.298 20.5521 239.242 20.2364C238.805 20.1061 238.84 19.9325 239.037 19.6523C239.731 18.6656 240.369 17.6316 241.137 16.7081C242.245 15.3741 243.379 14.048 244.625 12.8443C247.584 9.99877 250.783 7.46108 254.57 5.77587C256.65 4.8484 258.794 4.14196 261.068 3.81438C262.226 3.64863 263.381 3.48287 264.673 3.4434L264.677 3.43945ZM209.087 62.3549C208.362 62.3273 207.707 62.3313 207.081 62.6115C205.67 63.2429 204.465 64.1744 203.357 65.2281C201.43 67.0633 199.835 69.1629 198.392 71.3888C198.195 71.6967 198.255 71.8032 198.459 72.0203C199.397 73.0148 200.39 73.9541 201.32 74.9566C203.535 77.3404 205.816 79.657 208.062 82.0092C208.318 82.2737 208.519 82.2934 208.85 82.0921C211.632 80.3793 214.296 78.5283 216.42 75.9867C217.129 75.1381 217.684 74.2265 218.063 73.2003C218.591 71.7559 218.197 70.3745 217.771 68.9971C217.487 68.0736 217.44 67.2527 218.319 66.5542C219.02 66.0016 219.631 65.3347 220.273 64.7111C222.133 62.9035 223.973 61.0762 225.892 59.3318C227.267 58.0807 228.509 56.6876 229.903 55.4523C230.723 54.7261 231.503 53.9407 232.26 53.1514C232.851 52.5357 233.45 51.9003 234.08 51.3399C234.931 50.59 235.759 49.7967 236.527 48.9916C237.583 47.8826 238.761 46.9078 239.805 45.7909C241.543 43.936 243.545 42.3455 245.251 40.455C245.562 40.1077 245.964 39.8433 246.272 39.492C247.454 38.1462 248.628 36.7925 249.782 35.4191C250.756 34.2627 251.745 33.1182 252.639 31.9026C253.951 30.1188 255.35 28.3941 256.513 26.4997C256.635 26.2984 256.725 25.9866 256.461 25.7498C256.134 25.4538 255.634 25.809 255.413 25.959C254.014 26.918 252.592 27.8494 251.213 28.8361C249.932 29.7557 248.656 30.6831 247.462 31.7211C246.228 32.7906 244.857 33.7142 243.671 34.8311C242.989 35.4744 242.233 36.019 241.559 36.6623C240.022 38.1344 238.564 39.6854 237 41.1338C235.601 42.4323 234.324 43.861 232.918 45.1515C231.661 46.3039 230.431 47.4879 229.21 48.6719C228.296 49.5599 227.405 50.4834 226.467 51.3399C225.435 52.2831 224.47 53.2974 223.437 54.2407C221.53 55.9811 219.729 57.8321 217.877 59.6318C216.869 60.6105 215.828 61.5577 214.847 62.5602C214.016 63.4048 213.161 63.5232 212.105 62.9904C211.151 62.5089 210.123 62.2287 209.087 62.3471V62.3549Z" fill="white"/>
<path d="M240.479 39.2507C241.216 38.4653 242.048 37.7667 242.808 37.0011C243.836 35.967 245.003 35.0988 246.13 34.1832C247.087 33.4017 248.025 32.5887 248.998 31.831C249.861 31.16 250.76 30.5365 251.65 29.9011C251.757 29.8261 252.19 29.4748 252.446 29.7235C252.616 29.8892 252.446 30.2484 252.352 30.3825C252.001 30.8956 251.705 31.2942 251.331 31.7915C250.708 32.6242 250.05 33.4333 249.416 34.2581C248.766 35.1067 248.049 35.9197 247.308 36.713C245.933 38.1772 244.617 39.6966 243.147 41.0661C242.501 41.666 240.621 43.6551 239.431 42.1593C238.742 41.299 239.857 39.9137 240.479 39.2546V39.2507ZM240.621 40.6162C240.684 41.0227 240.873 41.3542 241.342 41.3187C241.772 41.2871 242.111 41.0306 242.099 40.5649C242.087 40.1031 241.78 39.8505 241.299 39.8545C240.814 39.8584 240.657 40.1663 240.621 40.6122V40.6162ZM243.9 37.3878C243.411 37.3444 243.226 37.668 243.23 38.0824C243.234 38.485 243.482 38.7336 243.923 38.7534C244.447 38.7731 244.664 38.4376 244.684 38.0114C244.703 37.5339 244.361 37.372 243.9 37.3918V37.3878Z" fill="white"/>
<path d="M211.025 75.7729C210.635 76.0886 210.245 76.4122 209.883 76.7595C209.587 77.0477 209.362 77.0555 209.067 76.7595C207.242 74.9125 205.402 73.0773 203.574 71.2342C203.468 71.1237 203.204 71.0251 203.436 70.8041C204.358 69.92 205.099 68.8663 206.127 68.073C207.743 66.8298 210.899 67.2994 212.192 69.1031C214.394 72.6156 212.259 74.7783 211.029 75.7768L211.025 75.7729ZM212.578 71.8341C212.483 71.471 212.396 71.104 212.298 70.7449C211.62 68.3335 208.724 67.4257 206.691 68.5268C205.749 69.0399 205.193 69.9832 204.417 70.6857C204.201 70.883 204.334 71.0409 204.492 71.1987C204.882 71.5855 205.3 71.9525 205.655 72.3709C206.714 73.622 207.967 74.6836 209.075 75.8913C209.327 76.1636 209.603 76.2899 209.922 75.8794C210.131 75.6071 210.493 75.4611 210.765 75.2322C211.821 74.3481 212.546 73.2904 212.578 71.8381V71.8341Z" fill="white"/>
<path d="M240.621 40.6123C240.657 40.1663 240.818 39.8585 241.299 39.8545C241.776 39.8506 242.083 40.1032 242.099 40.5649C242.111 41.0267 241.772 41.2872 241.342 41.3187C240.873 41.3503 240.684 41.0227 240.621 40.6162V40.6123Z" fill="black"/>
<path d="M243.9 37.3887C244.357 37.3689 244.703 37.5308 244.684 38.0083C244.664 38.4345 244.447 38.77 243.923 38.7503C243.482 38.7345 243.238 38.4858 243.23 38.0793C243.226 37.6689 243.411 37.3413 243.9 37.3847V37.3887Z" fill="black"/>
</svg>
