<svg width="20" height="21" viewBox="0 0 20 21" fill="none" xmlns="http://www.w3.org/2000/svg">
<path fill-rule="evenodd" clip-rule="evenodd" d="M18.896 0.5H1.104C0.494 0.5 0 0.994 0 1.604V19.396C0 20.006 0.494 20.5 1.104 20.5H10.682V12.755H8.076V9.737H10.682V7.51C10.682 4.926 12.26 3.52 14.565 3.52C15.669 3.52 16.617 3.602 16.894 3.639V6.339H15.296C14.042 6.339 13.8 6.935 13.8 7.809V9.736H16.789L16.399 12.754H13.799V20.5H18.896C19.506 20.5 20 20.006 20 19.396V1.604C20 0.994 19.506 0.5 18.896 0.5Z" fill="white"/>
</svg>
