<svg width="21" height="21" viewBox="0 0 21 21" fill="none" xmlns="http://www.w3.org/2000/svg">
<path d="M6.47484 0.916656H14.5248C17.5915 0.916656 20.0832 3.40832 20.0832 6.47499V14.525C20.0832 15.9992 19.4976 17.4129 18.4552 18.4553C17.4128 19.4977 15.999 20.0833 14.5248 20.0833H6.47484C3.40817 20.0833 0.916504 17.5917 0.916504 14.525V6.47499C0.916504 5.00083 1.50211 3.58704 2.5445 2.54465C3.58689 1.50227 5.00068 0.916656 6.47484 0.916656ZM6.28317 2.83332C5.36817 2.83332 4.49065 3.1968 3.84365 3.8438C3.19665 4.49081 2.83317 5.36833 2.83317 6.28332V14.7167C2.83317 16.6237 4.37609 18.1667 6.28317 18.1667H14.7165C15.6315 18.1667 16.509 17.8032 17.156 17.1562C17.803 16.5092 18.1665 15.6317 18.1665 14.7167V6.28332C18.1665 4.37624 16.6236 2.83332 14.7165 2.83332H6.28317ZM15.5311 4.27082C15.8488 4.27082 16.1535 4.39703 16.3781 4.62168C16.6028 4.84634 16.729 5.15103 16.729 5.46874C16.729 5.78645 16.6028 6.09114 16.3781 6.31579C16.1535 6.54045 15.8488 6.66666 15.5311 6.66666C15.2134 6.66666 14.9087 6.54045 14.684 6.31579C14.4594 6.09114 14.3332 5.78645 14.3332 5.46874C14.3332 5.15103 14.4594 4.84634 14.684 4.62168C14.9087 4.39703 15.2134 4.27082 15.5311 4.27082ZM10.4998 5.70832C11.7707 5.70832 12.9894 6.21316 13.8881 7.11177C14.7867 8.01038 15.2915 9.22916 15.2915 10.5C15.2915 11.7708 14.7867 12.9896 13.8881 13.8882C12.9894 14.7868 11.7707 15.2917 10.4998 15.2917C9.22901 15.2917 8.01023 14.7868 7.11162 13.8882C6.21301 12.9896 5.70817 11.7708 5.70817 10.5C5.70817 9.22916 6.21301 8.01038 7.11162 7.11177C8.01023 6.21316 9.22901 5.70832 10.4998 5.70832ZM10.4998 7.62499C9.73734 7.62499 9.00607 7.92789 8.4669 8.46706C7.92774 9.00622 7.62484 9.73749 7.62484 10.5C7.62484 11.2625 7.92774 11.9938 8.4669 12.5329C9.00607 13.0721 9.73734 13.375 10.4998 13.375C11.2623 13.375 11.9936 13.0721 12.5328 12.5329C13.0719 11.9938 13.3748 11.2625 13.3748 10.5C13.3748 9.73749 13.0719 9.00622 12.5328 8.46706C11.9936 7.92789 11.2623 7.62499 10.4998 7.62499Z" fill="white"/>
</svg>
