<svg width="157" height="36" viewBox="0 0 157 36" fill="none" xmlns="http://www.w3.org/2000/svg">
<path d="M24.0349 14.4231H30.968L32.1891 17.4279H38.5434L30.574 0.183746H24.5319L16.5625 17.4279H22.8107L24.0319 14.4231H24.0349ZM25.7348 10.2354L27.4984 5.89315L29.262 10.2354H25.7318H25.7348Z" fill="black"/>
<path d="M39.3229 15.0205C40.1956 15.7932 41.2289 16.3876 42.4197 16.8037C43.6106 17.2198 44.9045 17.4309 46.3014 17.4309C48.0165 17.4309 49.5346 17.1426 50.8557 16.5689C52.1799 15.9953 53.2738 15.181 54.1374 14.1259L50.4194 10.9844C49.9043 11.5996 49.3346 12.0751 48.7104 12.4139C48.0862 12.7528 47.3832 12.9222 46.6014 12.9222C45.9862 12.9222 45.4287 12.8271 44.9287 12.6398C44.4287 12.4496 44.0015 12.1762 43.6439 11.8136C43.2864 11.451 43.0076 11.0141 42.8076 10.5029C42.6076 9.99169 42.5076 9.42104 42.5076 8.79096C42.5076 8.16087 42.6076 7.59023 42.8076 7.07903C43.0076 6.56783 43.2864 6.13093 43.6439 5.76833C44.0015 5.40574 44.4318 5.12933 44.9287 4.94209C45.4287 4.75187 45.9862 4.65974 46.6014 4.65974C47.3832 4.65974 48.0862 4.82915 48.7104 5.16797C49.3346 5.50679 49.9043 5.98232 50.4194 6.59755L54.1374 3.45604C53.2708 2.38608 52.1769 1.56578 50.8557 1.00108C49.5316 0.433411 48.0134 0.151062 46.3014 0.151062C44.9045 0.151062 43.6106 0.359109 42.4197 0.778175C41.2289 1.19427 40.1986 1.78869 39.3229 2.56144C38.4502 3.33418 37.7714 4.24662 37.2896 5.30171C36.8078 6.35681 36.5654 7.52187 36.5654 8.7969C36.5654 10.0719 36.8078 11.237 37.2896 12.2921C37.7714 13.3472 38.4502 14.2596 39.3229 15.0324V15.0205Z" fill="black"/>
<path d="M55.5797 15.3979C56.4524 16.1707 57.4857 16.7651 58.6766 17.1812C59.8674 17.5973 61.1613 17.8083 62.5582 17.8083C64.2733 17.8083 65.7914 17.52 67.1126 16.9464C68.4368 16.3728 69.5307 15.5584 70.3943 14.5033L66.6762 11.3618C66.1611 11.9771 65.5914 12.4526 64.9672 12.7914C64.343 13.1302 63.64 13.2996 62.8582 13.2996C62.2431 13.2996 61.6855 13.2045 61.1855 13.0173C60.6856 12.8271 60.2583 12.5536 59.9008 12.1911C59.5432 11.8285 59.2644 11.3916 59.0644 10.8804C58.8644 10.3692 58.7644 9.79851 58.7644 9.16843C58.7644 8.53834 58.8644 7.9677 59.0644 7.4565C59.2644 6.9453 59.5432 6.5084 59.9008 6.1458C60.2583 5.78321 60.6886 5.5068 61.1855 5.31956C61.6855 5.12934 62.2431 5.03721 62.8582 5.03721C63.64 5.03721 64.343 5.20662 64.9672 5.54544C65.5914 5.88426 66.1611 6.35979 66.6762 6.97502L70.3943 3.83351C69.5276 2.76355 68.4337 1.94325 67.1126 1.37855C65.7884 0.810883 64.2703 0.528534 62.5582 0.528534C61.1613 0.528534 59.8674 0.736581 58.6766 1.15565C57.4857 1.57174 56.4554 2.16616 55.5797 2.93891C54.707 3.71165 54.0283 4.62409 53.5465 5.67918C53.0647 6.73428 52.8223 7.89934 52.8223 9.17437C52.8223 10.4494 53.0647 11.6145 53.5465 12.6696C54.0283 13.7247 54.707 14.6371 55.5797 15.4098V15.3979Z" fill="black"/>
<path d="M76.6182 0.897064H70.7275V17.4279H76.6182V0.897064Z" fill="black"/>
<path d="M93.8505 15.3623C94.7323 14.5836 95.4201 13.6652 95.911 12.6101C96.4019 11.555 96.6473 10.4048 96.6473 9.16247C96.6473 7.92013 96.4019 6.74913 95.911 5.70295C95.4201 4.65677 94.7323 3.74136 93.8505 2.96267C92.9687 2.18398 91.9293 1.58064 90.7294 1.15563C89.5325 0.730623 88.2174 0.516632 86.7841 0.516632C85.3508 0.516632 84.06 0.730623 82.8509 1.15563C81.6449 1.58064 80.5995 2.18398 79.7177 2.96267C78.836 3.74136 78.1481 4.6538 77.6572 5.70295C77.1663 6.74913 76.9209 7.9023 76.9209 9.16247C76.9209 10.4226 77.1663 11.555 77.6572 12.6101C78.1481 13.6652 78.8329 14.5836 79.7177 15.3623C80.5995 16.141 81.6449 16.7443 82.8509 17.1693C84.057 17.5943 85.3751 17.8083 86.8084 17.8083C88.2416 17.8083 89.5295 17.5943 90.7264 17.1693C91.9233 16.7443 92.9657 16.141 93.8475 15.3623H93.8505ZM90.4052 10.8982C90.2052 11.4094 89.9264 11.8433 89.5688 12.197C89.2113 12.5507 88.7962 12.8241 88.3204 13.0113C87.8447 13.2016 87.3356 13.2937 86.7841 13.2937C86.2326 13.2937 85.7236 13.1986 85.2478 13.0113C84.7721 12.8211 84.3569 12.5507 83.9994 12.197C83.6418 11.8433 83.363 11.4094 83.1631 10.8982C82.9631 10.387 82.8631 9.80742 82.8631 9.16247C82.8631 8.51753 82.9631 7.93797 83.1631 7.42676C83.363 6.91556 83.6418 6.48164 83.9994 6.12796C84.3569 5.77428 84.7721 5.50084 85.2478 5.3136C85.7236 5.12339 86.2326 5.03125 86.7841 5.03125C87.3356 5.03125 87.8447 5.12636 88.3204 5.3136C88.7962 5.50382 89.2113 5.77428 89.5688 6.12796C89.9264 6.48164 90.2052 6.91556 90.4052 7.42676C90.6052 7.93797 90.7052 8.51753 90.7052 9.16247C90.7052 9.80742 90.6052 10.387 90.4052 10.8982Z" fill="black"/>
<path d="M103.499 9.91144L110.141 17.4279H114.983V0.897064H109.241V8.41351L102.602 0.897064H97.7598V17.4279H103.499V9.91144Z" fill="black"/>
<path d="M12.966 19.9928C11.8176 19.4905 10.457 19.2379 8.88434 19.2379H0.769531V35.7687H6.45111V31.7058H8.88434C10.457 31.7058 11.8176 31.4502 12.966 30.939C14.1144 30.4278 14.9992 29.7086 15.6265 28.7783C16.2537 27.8481 16.5658 26.7484 16.5658 25.4734C16.5658 24.1983 16.2537 23.0927 15.6265 22.1565C14.9992 21.2203 14.1144 20.501 12.966 19.9958V19.9928ZM10.2691 26.8881C9.89036 27.2358 9.30857 27.4082 8.52375 27.4082H6.45414V23.5355H8.52375C9.30857 23.5355 9.89339 23.7079 10.2691 24.0557C10.6449 24.4034 10.8358 24.876 10.8358 25.4734C10.8358 26.0707 10.6479 26.5433 10.2691 26.891V26.8881Z" fill="black"/>
<path d="M32.8891 21.0182C32.0376 20.2395 31.0346 19.6362 29.8801 19.2111C28.7256 18.7861 27.456 18.5721 26.0742 18.5721C24.6925 18.5721 23.4471 18.7861 22.2804 19.2111C21.1169 19.6362 20.1078 20.2395 19.2594 21.0182C18.4079 21.7969 17.7473 22.7123 17.2716 23.7585C16.7989 24.8046 16.5625 25.9578 16.5625 27.218C16.5625 28.4782 16.7989 29.6105 17.2716 30.6656C17.7443 31.7207 18.4079 32.6391 19.2594 33.4178C20.1108 34.1965 21.1169 34.7998 22.2804 35.2248C23.444 35.6498 24.7167 35.8638 26.0985 35.8638C27.4802 35.8638 28.7226 35.6498 29.8801 35.2248C31.0346 34.7998 32.0376 34.1965 32.8891 33.4178C33.7406 32.6391 34.4011 31.7207 34.8769 30.6656C35.3496 29.6105 35.5859 28.4603 35.5859 27.218C35.5859 25.9756 35.3496 24.8046 34.8769 23.7585C34.4042 22.7123 33.7406 21.7969 32.8891 21.0182ZM29.565 28.9537C29.371 29.4649 29.1044 29.8988 28.759 30.2525C28.4135 30.6062 28.0135 30.8796 27.556 31.0669C27.0984 31.2571 26.6045 31.3492 26.0742 31.3492C25.5439 31.3492 25.05 31.2541 24.5925 31.0669C24.1349 30.8766 23.7349 30.6062 23.3895 30.2525C23.044 29.8988 22.7744 29.4649 22.5835 28.9537C22.3895 28.4425 22.2956 27.8629 22.2956 27.218C22.2956 26.573 22.3926 25.9935 22.5835 25.4823C22.7774 24.9711 23.044 24.5371 23.3895 24.1835C23.7349 23.8298 24.1349 23.5564 24.5925 23.3691C25.05 23.1789 25.5439 23.0868 26.0742 23.0868C26.6045 23.0868 27.0984 23.1819 27.556 23.3691C28.0135 23.5593 28.4135 23.8298 28.759 24.1835C29.1044 24.5371 29.3741 24.9711 29.565 25.4823C29.7589 25.9935 29.8528 26.573 29.8528 27.218C29.8528 27.8629 29.7559 28.4425 29.565 28.9537Z" fill="black"/>
<path d="M47.7824 19.9928C46.634 19.4905 45.2734 19.2379 43.7007 19.2379H35.5859V35.7687H41.2675V31.7058H43.7007C45.2734 31.7058 46.634 31.4502 47.7824 30.939C48.9308 30.4278 49.8156 29.7086 50.4429 28.7783C51.0701 27.8481 51.3822 26.7484 51.3822 25.4734C51.3822 24.1983 51.0701 23.0927 50.4429 22.1565C49.8156 21.2203 48.9308 20.501 47.7824 19.9958V19.9928ZM45.0855 26.8881C44.7068 27.2358 44.125 27.4082 43.3402 27.4082H41.2705V23.5355H43.3402C44.125 23.5355 44.7098 23.7079 45.0855 24.0557C45.4613 24.4034 45.6522 24.876 45.6522 25.4734C45.6522 26.0707 45.4643 26.5433 45.0855 26.891V26.8881Z" fill="black"/>
<path d="M62.2186 27.8808C62.2186 29.1409 61.9883 30.0326 61.5338 30.5616C61.0762 31.0906 60.446 31.3522 59.643 31.3522C58.84 31.3522 58.2309 31.0877 57.7643 30.5616C57.2976 30.0355 57.0673 29.1409 57.0673 27.8808V18.9526H51.3857V28.0442C51.3857 30.517 52.1069 32.437 53.5523 33.8071C54.9977 35.1773 57.0128 35.8609 59.5975 35.8609C62.1823 35.8609 64.1973 35.1743 65.6427 33.8071C67.0881 32.437 67.8093 30.517 67.8093 28.0442V18.9526H62.2247V27.8808H62.2186Z" fill="black"/>
<path d="M73.791 18.9526H68.1094V35.4834H81.3997V31.162H73.791V18.9526Z" fill="black"/>
<path d="M85.136 18.9526L77.7666 35.4834H83.5451L84.6754 32.6034H91.0842L92.2145 35.4834H98.09L90.7206 18.9526H85.133H85.136ZM86.2481 28.5881L87.8783 24.4242L89.5085 28.5881H86.245H86.2481Z" fill="black"/>
<path d="M108.917 35.5785H114.983L111.447 30.4932C112.392 30.0207 113.138 29.3787 113.683 28.5762C114.31 27.6549 114.622 26.5582 114.622 25.2832C114.622 24.0081 114.31 22.9025 113.683 21.9663C113.056 21.0301 112.171 20.3108 111.023 19.8056C109.874 19.3033 108.514 19.0507 106.941 19.0507H98.8262V35.5815H104.508V31.4235H106.056L108.914 35.5815L108.917 35.5785ZM108.326 23.8655C108.702 24.2132 108.892 24.6858 108.892 25.2832C108.892 25.8805 108.705 26.3531 108.326 26.7008C107.947 27.0486 107.365 27.221 106.58 27.221H104.511V23.3483H106.58C107.365 23.3483 107.95 23.5207 108.326 23.8684V23.8655Z" fill="black"/>
<path d="M156.229 13.5404C156.229 13.8822 156.229 14.1586 156.229 14.4617C156.229 21.5026 156.229 28.5435 156.229 35.5844C156.229 35.7568 156.229 35.8609 155.99 35.8609C148.548 35.8519 141.109 35.8519 133.667 35.8519C133.582 35.8519 133.494 35.8519 133.442 35.8519C141.015 28.4217 148.639 20.9885 156.229 13.5404Z" fill="#DE1A22"/>
<path d="M142.648 0.151061C142.097 0.691983 141.597 1.17643 141.1 1.66386C140.697 2.05618 140.285 2.43958 139.894 2.84676C138.385 4.43088 136.788 5.92882 135.227 7.4654C133.052 9.61125 130.858 11.7422 128.673 13.8822C126.812 15.707 124.973 17.5557 123.088 19.3568C122.094 20.3078 119.907 22.3586 119.819 22.3853C119.819 22.3853 119.819 22.2605 119.819 22.1951C119.813 21.1906 119.807 20.189 119.807 19.1844C119.807 12.9311 119.813 6.67779 119.81 0.424494C119.81 0.210503 119.843 0.1362 120.088 0.1362C127.497 0.145116 134.903 0.145116 142.312 0.145116C142.397 0.145116 142.484 0.145116 142.645 0.145116L142.648 0.151061Z" fill="#DE1A22"/>
<path d="M148.997 0.971356C149.621 1.01594 150.29 1.08727 150.96 1.22101C151.818 1.39339 152.621 1.69358 153.424 2.00862C153.848 2.17506 154.121 2.44849 154.287 2.87647C154.605 3.6938 154.896 4.52004 155.039 5.38195C155.172 6.18739 155.242 7.00472 155.142 7.81907C155.017 8.85336 154.778 9.86091 154.363 10.8239C153.763 12.2178 152.911 13.4482 151.875 14.5568C150.715 15.8021 149.421 16.8988 147.957 17.7934C147.787 17.8975 147.73 17.9123 147.675 17.6894C147.454 16.7681 147.006 15.9537 146.333 15.279C145.845 14.7886 145.254 14.6133 144.533 14.7114C143.557 14.8451 142.794 15.3504 142.054 15.918C141.606 16.2598 129.691 27.3369 129.476 27.5182C129.17 27.7767 129.106 28.065 129.258 28.4395C129.373 28.7248 129.425 29.0339 129.437 29.346C129.464 30.0088 129.243 30.5943 128.861 31.1263C128.419 31.7385 127.864 32.2408 127.282 32.7253C126.597 33.2959 125.855 33.7774 125.079 34.2173C124.919 34.3094 124.837 34.2797 124.728 34.1697C124.016 33.4505 123.298 32.7401 122.592 32.0179C121.87 31.2868 121.161 30.5438 120.44 29.8126C120.286 29.6551 120.258 29.5511 120.395 29.3549C120.898 28.6327 121.416 27.9253 122.013 27.2715C122.598 26.6295 123.225 26.047 124.004 25.6457C124.567 25.3545 125.152 25.2504 125.804 25.402C126.185 25.4912 126.531 25.6457 126.9 25.7527C127.1 25.8122 127.264 25.7973 127.394 25.6576C127.667 25.3604 138.727 14.6668 139.315 14.0605C139.933 13.4274 140.509 12.7528 140.867 11.9325C141.212 11.1389 141.324 10.3394 140.757 9.60233C140.412 9.1476 139.918 8.8385 139.43 8.53535C139.027 8.28272 138.582 8.13115 138.13 8.00037C137.942 7.94687 137.958 7.87257 138.042 7.75666C138.339 7.34354 138.612 6.90961 138.939 6.52324C139.412 5.96448 139.897 5.4087 140.43 4.90642C141.694 3.7146 143.063 2.65356 144.682 1.9462C145.569 1.55983 146.488 1.26262 147.46 1.12591C147.954 1.05755 148.448 0.986216 149.003 0.968384L148.997 0.971356ZM125.228 25.6398C124.919 25.6279 124.637 25.6309 124.37 25.7468C123.767 26.0113 123.252 26.4006 122.776 26.8435C121.952 27.6103 121.27 28.49 120.652 29.4233C120.567 29.5511 120.592 29.5957 120.68 29.6878C121.08 30.1039 121.504 30.4992 121.904 30.9182C122.849 31.9169 123.825 32.8858 124.785 33.8695C124.895 33.9795 124.982 33.9884 125.122 33.9022C126.313 33.183 127.449 32.4102 128.358 31.3462C128.661 30.9896 128.9 30.6091 129.061 30.1782C129.288 29.5748 129.119 28.9953 128.937 28.4187C128.816 28.0323 128.794 27.6876 129.17 27.3963C129.47 27.1645 129.731 26.8851 130.006 26.6236C130.803 25.8686 131.588 25.1018 132.409 24.3707C132.997 23.8476 133.527 23.2651 134.124 22.7479C134.476 22.4418 134.806 22.1149 135.13 21.785C135.385 21.5264 135.64 21.2619 135.909 21.0271C136.273 20.712 136.627 20.3821 136.955 20.0433C137.406 19.5797 137.909 19.1725 138.358 18.7029C139.1 17.9272 139.958 17.2614 140.685 16.4679C140.818 16.3223 140.991 16.2123 141.121 16.0637C141.627 15.499 142.13 14.9313 142.624 14.3577C143.039 13.8732 143.463 13.3947 143.845 12.8865C144.406 12.1405 145.006 11.4183 145.503 10.6247C145.554 10.5415 145.594 10.4107 145.482 10.3097C145.342 10.1849 145.127 10.3335 145.033 10.3989C144.436 10.8001 143.827 11.1894 143.236 11.6055C142.688 11.9919 142.142 12.3783 141.63 12.8122C141.103 13.261 140.518 13.6474 140.009 14.114C139.718 14.3844 139.394 14.6103 139.106 14.8808C138.448 15.499 137.824 16.1469 137.158 16.7532C136.561 17.2971 136.012 17.8945 135.412 18.4354C134.876 18.9199 134.349 19.4132 133.827 19.9096C133.437 20.2811 133.055 20.6675 132.655 21.0271C132.212 21.4224 131.8 21.8474 131.358 22.2427C130.543 22.9708 129.773 23.7466 128.979 24.4985C128.549 24.9086 128.103 25.3039 127.682 25.723C127.328 26.0767 126.961 26.1272 126.51 25.9013C126.104 25.6992 125.661 25.5833 125.219 25.6338L125.228 25.6398Z" fill="#010101"/>
<path d="M138.649 15.9656C138.964 15.6357 139.321 15.3444 139.646 15.0235C140.085 14.5895 140.585 14.2269 141.067 13.8435C141.476 13.5166 141.876 13.1778 142.294 12.8568C142.664 12.5744 143.048 12.3159 143.427 12.0484C143.473 12.0157 143.657 11.8701 143.77 11.9741C143.842 12.0424 143.77 12.194 143.73 12.2505C143.582 12.4645 143.454 12.6309 143.294 12.839C143.027 13.1867 142.745 13.5255 142.476 13.8703C142.197 14.224 141.891 14.5658 141.573 14.8986C140.985 15.5109 140.421 16.1499 139.794 16.7205C139.518 16.9732 138.712 17.8053 138.206 17.1782C137.909 16.8186 138.388 16.239 138.655 15.9626L138.649 15.9656ZM138.709 16.5363C138.736 16.7057 138.818 16.8454 139.018 16.8305C139.203 16.8186 139.349 16.7086 139.343 16.5155C139.336 16.3223 139.206 16.2153 139 16.2182C138.794 16.2182 138.724 16.349 138.709 16.5363ZM140.112 15.184C139.903 15.1661 139.824 15.3028 139.827 15.4752C139.827 15.6446 139.933 15.7487 140.124 15.7546C140.349 15.7635 140.439 15.6238 140.449 15.4425C140.458 15.2434 140.309 15.175 140.115 15.184H140.112Z" fill="#010101"/>
<path d="M126.055 31.2571C125.888 31.3908 125.722 31.5245 125.567 31.6702C125.44 31.7891 125.346 31.795 125.219 31.6702C124.437 30.8974 123.652 30.1277 122.87 29.3549C122.825 29.3103 122.713 29.2687 122.81 29.1736C123.204 28.8021 123.522 28.3622 123.961 28.0294C124.652 27.5092 126.001 27.7054 126.555 28.4603C127.498 29.9315 126.582 30.838 126.058 31.2541L126.055 31.2571ZM126.719 29.6075C126.679 29.456 126.643 29.3014 126.598 29.1528C126.307 28.1423 125.07 27.7619 124.201 28.2255C123.798 28.4395 123.561 28.8348 123.228 29.129C123.134 29.2123 123.192 29.2776 123.258 29.343C123.425 29.5065 123.604 29.6581 123.755 29.8334C124.21 30.3565 124.746 30.8023 125.219 31.3076C125.328 31.4235 125.443 31.474 125.579 31.3016C125.67 31.1887 125.825 31.1263 125.94 31.0312C126.391 30.6626 126.701 30.2168 126.716 29.6105L126.719 29.6075Z" fill="#010101"/>
</svg>
