<svg width="452" height="107" viewBox="0 0 452 107" fill="none" xmlns="http://www.w3.org/2000/svg">
<path d="M68.3273 43.0204H88.3983L91.9335 51.861H110.329L87.2579 1.12598H69.766L46.6949 51.861H64.7834L68.3186 43.0204H68.3273ZM73.2486 30.6995L78.354 17.924L83.4595 30.6995H73.2398H73.2486Z" fill="white"/>
<path d="M112.583 44.7785C115.11 47.052 118.101 48.8009 121.549 50.0251C124.996 51.2493 128.742 51.8702 132.786 51.8702C137.751 51.8702 142.146 51.022 145.971 49.3343C149.804 47.6466 152.971 45.2507 155.471 42.1464L144.707 32.9036C143.216 34.7137 141.567 36.1128 139.76 37.1096C137.953 38.1065 135.918 38.6049 133.654 38.6049C131.874 38.6049 130.26 38.3251 128.812 37.7742C127.365 37.2146 126.128 36.4101 125.093 35.3433C124.058 34.2765 123.25 32.991 122.672 31.487C122.093 29.983 121.803 28.304 121.803 26.4502C121.803 24.5964 122.093 22.9175 122.672 21.4135C123.25 19.9094 124.058 18.624 125.093 17.5572C126.128 16.4904 127.373 15.6771 128.812 15.1262C130.26 14.5666 131.874 14.2955 133.654 14.2955C135.918 14.2955 137.953 14.794 139.76 15.7908C141.567 16.7877 143.216 18.1868 144.707 19.9969L155.471 10.754C152.962 7.60606 149.795 5.1926 145.971 3.53117C142.137 1.86099 137.742 1.03027 132.786 1.03027C128.742 1.03027 124.996 1.64238 121.549 2.87534C118.101 4.09956 115.119 5.84843 112.583 8.12198C110.057 10.3955 108.092 13.0801 106.697 16.1843C105.302 19.2886 104.601 22.7164 104.601 26.4677C104.601 30.2191 105.302 33.6469 106.697 36.7511C108.092 39.8554 110.057 42.5399 112.583 44.8135V44.7785Z" fill="white"/>
<path d="M159.647 45.8888C162.173 48.1624 165.164 49.9112 168.612 51.1355C172.059 52.3597 175.805 52.9805 179.849 52.9805C184.814 52.9805 189.209 52.1323 193.034 50.4447C196.867 48.757 200.034 46.361 202.534 43.2568L191.771 34.0139C190.279 35.824 188.63 37.2231 186.823 38.22C185.016 39.2169 182.981 39.7153 180.718 39.7153C178.937 39.7153 177.323 39.4355 175.875 38.8846C174.428 38.3249 173.191 37.5204 172.156 36.4536C171.121 35.3868 170.314 34.1014 169.735 32.5973C169.156 31.0933 168.866 29.4144 168.866 27.5606C168.866 25.7068 169.156 24.0278 169.735 22.5238C170.314 21.0198 171.121 19.7343 172.156 18.6675C173.191 17.6007 174.437 16.7875 175.875 16.2366C177.323 15.6769 178.937 15.4059 180.718 15.4059C182.981 15.4059 185.016 15.9043 186.823 16.9012C188.63 17.898 190.279 19.2971 191.771 21.1072L202.534 11.8644C200.025 8.71641 196.859 6.30296 193.034 4.64152C189.2 2.97134 184.805 2.14062 179.849 2.14062C175.805 2.14062 172.059 2.75273 168.612 3.98569C165.164 5.20991 162.182 6.95879 159.647 9.23233C157.12 11.5059 155.155 14.1904 153.76 17.2947C152.366 20.3989 151.664 23.8267 151.664 27.5781C151.664 31.3294 152.366 34.7572 153.76 37.8615C155.155 40.9657 157.12 43.6503 159.647 45.9238V45.8888Z" fill="white"/>
<path d="M220.552 3.22559H203.499V51.8619H220.552V3.22559Z" fill="white"/>
<path d="M270.44 45.7837C272.993 43.4927 274.984 40.7907 276.405 37.6864C277.827 34.5821 278.537 31.1981 278.537 27.5429C278.537 23.8878 277.827 20.4425 276.405 17.3644C274.984 14.2864 272.993 11.5931 270.44 9.30211C267.888 7.01107 264.879 5.23596 261.405 3.98551C257.94 2.73506 254.133 2.10547 249.983 2.10547C245.834 2.10547 242.097 2.73506 238.597 3.98551C235.106 5.23596 232.079 7.01107 229.526 9.30211C226.974 11.5931 224.982 14.2777 223.561 17.3644C222.14 20.4425 221.43 23.8353 221.43 27.5429C221.43 31.2505 222.14 34.5821 223.561 37.6864C224.982 40.7907 226.965 43.4927 229.526 45.7837C232.079 48.0748 235.106 49.8499 238.597 51.1003C242.088 52.3508 245.904 52.9804 250.054 52.9804C254.203 52.9804 257.931 52.3508 261.396 51.1003C264.861 49.8499 267.879 48.0748 270.432 45.7837H270.44ZM260.466 32.6496C259.887 34.1537 259.08 35.4304 258.045 36.4709C257.01 37.5115 255.808 38.316 254.431 38.8669C253.054 39.4265 251.58 39.6976 249.983 39.6976C248.387 39.6976 246.913 39.4178 245.536 38.8669C244.159 38.3073 242.957 37.5115 241.922 36.4709C240.887 35.4304 240.079 34.1537 239.5 32.6496C238.922 31.1456 238.632 29.4404 238.632 27.5429C238.632 25.6454 238.922 23.9402 239.5 22.4362C240.079 20.9321 240.887 19.6555 241.922 18.6149C242.957 17.5743 244.159 16.7698 245.536 16.2189C246.913 15.6593 248.387 15.3882 249.983 15.3882C251.58 15.3882 253.054 15.668 254.431 16.2189C255.808 16.7786 257.01 17.5743 258.045 18.6149C259.08 19.6555 259.887 20.9321 260.466 22.4362C261.045 23.9402 261.335 25.6454 261.335 27.5429C261.335 29.4404 261.045 31.1456 260.466 32.6496Z" fill="white"/>
<path d="M298.371 29.7473L317.6 51.8619H331.618V3.22559H314.995V25.3402L295.775 3.22559H281.757V51.8619H298.371V29.7473Z" fill="white"/>
<path d="M36.2822 59.4076C32.9576 57.9298 29.0188 57.1865 24.466 57.1865H0.973877V105.823H17.4219V93.8693H24.466C29.0188 93.8693 32.9576 93.1172 36.2822 91.6132C39.6069 90.1092 42.1684 87.993 43.9843 85.256C45.8001 82.519 46.7037 79.2836 46.7037 75.5323C46.7037 71.7809 45.8001 68.528 43.9843 65.7735C42.1684 63.019 39.6069 60.9029 36.2822 59.4163V59.4076ZM28.4749 79.6946C27.3784 80.7177 25.6941 81.2249 23.4221 81.2249H17.4306V69.8309H23.4221C25.6941 69.8309 27.3872 70.3381 28.4749 71.3612C29.5627 72.3843 30.1153 73.7746 30.1153 75.5323C30.1153 77.2899 29.5715 78.6802 28.4749 79.7033V79.6946Z" fill="white"/>
<path d="M93.9599 62.4252C91.4949 60.1341 88.5913 58.359 85.249 57.1086C81.9068 55.8581 78.2312 55.2285 74.2311 55.2285C70.2309 55.2285 66.6255 55.8581 63.2482 57.1086C59.8797 58.359 56.9585 60.1341 54.5023 62.4252C52.0373 64.7162 50.1249 67.4095 48.7477 70.4875C47.3792 73.5655 46.6949 76.9583 46.6949 80.666C46.6949 84.3736 47.3792 87.7052 48.7477 90.8095C50.1161 93.9137 52.0373 96.6157 54.5023 98.9068C56.9673 101.198 59.8797 102.973 63.2482 104.223C66.6168 105.474 70.3011 106.103 74.3013 106.103C78.3014 106.103 81.898 105.474 85.249 104.223C88.5913 102.973 91.4949 101.198 93.9599 98.9068C96.4249 96.6157 98.3373 93.9137 99.7145 90.8095C101.083 87.7052 101.767 84.3211 101.767 80.666C101.767 77.0108 101.083 73.5655 99.7145 70.4875C98.346 67.4095 96.4249 64.7162 93.9599 62.4252ZM84.3367 85.7727C83.7753 87.2767 83.0033 88.5534 82.0033 89.594C81.0033 90.6346 79.8453 91.4391 78.5207 91.9899C77.1961 92.5496 75.7662 92.8207 74.2311 92.8207C72.6959 92.8207 71.2661 92.5408 69.9414 91.9899C68.6168 91.4303 67.4589 90.6346 66.4589 89.594C65.4588 88.5534 64.6781 87.2767 64.1254 85.7727C63.564 84.2686 63.2921 82.5635 63.2921 80.666C63.2921 78.7684 63.5728 77.0633 64.1254 75.5592C64.6869 74.0552 65.4588 72.7785 66.4589 71.7379C67.4589 70.6974 68.6168 69.8929 69.9414 69.342C71.2661 68.7823 72.6959 68.5113 74.2311 68.5113C75.7662 68.5113 77.1961 68.7911 78.5207 69.342C79.8453 69.9016 81.0033 70.6974 82.0033 71.7379C83.0033 72.7785 83.7841 74.0552 84.3367 75.5592C84.8982 77.0633 85.1701 78.7684 85.1701 80.666C85.1701 82.5635 84.8894 84.2686 84.3367 85.7727Z" fill="white"/>
<path d="M137.076 59.4076C133.751 57.9298 129.812 57.1865 125.259 57.1865H101.767V105.823H118.215V93.8693H125.259C129.812 93.8693 133.751 93.1172 137.076 91.6132C140.4 90.1092 142.962 87.993 144.778 85.256C146.593 82.519 147.497 79.2836 147.497 75.5323C147.497 71.7809 146.593 68.528 144.778 65.7735C142.962 63.019 140.4 60.9029 137.076 59.4163V59.4076ZM129.268 79.6946C128.172 80.7177 126.487 81.2249 124.215 81.2249H118.224V69.8309H124.215C126.487 69.8309 128.181 70.3381 129.268 71.3612C130.356 72.3843 130.909 73.7746 130.909 75.5323C130.909 77.2899 130.365 78.6802 129.268 79.7033V79.6946Z" fill="white"/>
<path d="M178.867 82.6158C178.867 86.3234 178.2 88.9468 176.884 90.5033C175.559 92.0598 173.735 92.8293 171.41 92.8293C169.086 92.8293 167.322 92.051 165.971 90.5033C164.62 88.9555 163.954 86.3234 163.954 82.6158V56.3477H147.506V83.0968C147.506 90.3721 149.594 96.021 153.778 100.052C157.962 104.083 163.796 106.095 171.279 106.095C178.761 106.095 184.595 104.075 188.779 100.052C192.964 96.021 195.051 90.3721 195.051 83.0968V56.3477H178.884V82.6158H178.867Z" fill="white"/>
<path d="M212.368 56.3477H195.92V104.984H234.395V92.2696H212.368V56.3477Z" fill="white"/>
<path d="M245.211 56.3477L223.877 104.984H240.606L243.878 96.5107H262.431L265.703 104.984H282.713L261.379 56.3477H245.202H245.211ZM248.431 84.697L253.15 72.4461L257.87 84.697H248.422H248.431Z" fill="white"/>
<path d="M314.056 105.263H331.618L321.381 90.3017C324.118 88.9113 326.276 87.0225 327.855 84.6615C329.671 81.9508 330.574 78.7241 330.574 74.9727C330.574 71.2214 329.671 67.9685 327.855 65.214C326.039 62.4595 323.477 60.3434 320.153 58.8568C316.828 57.379 312.889 56.6357 308.336 56.6357H284.844V105.272H301.292V93.0387H305.775L314.047 105.272L314.056 105.263ZM312.345 70.8017C313.433 71.8248 313.986 73.2151 313.986 74.9727C313.986 76.7304 313.442 78.1207 312.345 79.1438C311.249 80.1669 309.565 80.6741 307.293 80.6741H301.301V69.2801H307.293C309.565 69.2801 311.258 69.7873 312.345 70.8104V70.8017Z" fill="white"/>
<path d="M451.026 40.4238C451.026 41.4294 451.026 42.2427 451.026 43.1346C451.026 63.8501 451.026 84.5655 451.026 105.281C451.026 105.788 451.026 106.094 450.333 106.094C428.788 106.068 407.253 106.068 385.708 106.068C385.462 106.068 385.208 106.068 385.059 106.068C406.981 84.207 429.052 62.3373 451.026 40.4238Z" fill="white"/>
<path d="M411.709 1.03005C410.112 2.62153 408.665 4.04687 407.226 5.48095C406.059 6.63521 404.866 7.76323 403.735 8.96122C399.366 13.622 394.743 18.0292 390.226 22.55C383.927 28.8635 377.576 35.1332 371.251 41.4292C365.865 46.7982 360.54 52.2372 355.084 57.5363C352.207 60.3345 345.873 66.3682 345.619 66.4469C345.619 66.4469 345.619 66.0796 345.619 65.8872C345.601 62.9316 345.583 59.9848 345.583 57.0292C345.583 38.631 345.601 20.2327 345.592 1.83453C345.592 1.20494 345.689 0.986328 346.399 0.986328C367.847 1.01256 389.287 1.01256 410.735 1.01256C410.981 1.01256 411.235 1.01256 411.7 1.01256L411.709 1.03005Z" fill="white"/>
<path d="M430.087 3.44331C431.894 3.57448 433.832 3.78435 435.771 4.17784C438.254 4.68502 440.578 5.5682 442.903 6.49511C444.131 6.98479 444.921 7.78928 445.403 9.04847C446.324 11.4532 447.166 13.8841 447.579 16.42C447.965 18.7897 448.166 21.1944 447.877 23.5904C447.517 26.6334 446.824 29.5978 445.622 32.431C443.885 36.5321 441.42 40.1523 438.42 43.4139C435.061 47.0778 431.315 50.3045 427.078 52.9366C426.587 53.2426 426.42 53.2864 426.262 52.6305C425.622 49.9198 424.323 47.5238 422.376 45.5388C420.964 44.096 419.253 43.5801 417.165 43.8686C414.341 44.2621 412.13 45.7487 409.989 47.4189C408.691 48.4245 374.199 81.0148 373.576 81.5482C372.69 82.309 372.506 83.1572 372.944 84.259C373.278 85.0985 373.427 86.0079 373.462 86.926C373.541 88.876 372.9 90.5987 371.795 92.1639C370.514 93.9653 368.909 95.4431 367.225 96.8684C365.242 98.5473 363.093 99.9639 360.847 101.258C360.382 101.529 360.145 101.442 359.83 101.118C357.768 99.0021 355.689 96.9122 353.645 94.7873C351.557 92.6361 349.505 90.45 347.417 88.2989C346.97 87.8355 346.891 87.5294 347.285 86.9523C348.742 84.8274 350.242 82.7462 351.97 80.8225C353.663 78.9337 355.479 77.2198 357.733 76.0393C359.365 75.1823 361.058 74.8763 362.944 75.3222C364.049 75.5846 365.049 76.0393 366.119 76.3541C366.698 76.529 367.172 76.4852 367.549 76.0743C368.339 75.1998 400.358 43.7375 402.059 41.9536C403.849 40.0911 405.516 38.1061 406.551 35.6926C407.551 33.3579 407.875 31.0056 406.235 28.837C405.235 27.4991 403.805 26.5897 402.393 25.6978C401.226 24.9545 399.936 24.5086 398.629 24.1238C398.086 23.9664 398.129 23.7478 398.375 23.4068C399.235 22.1913 400.024 20.9146 400.972 19.7778C402.34 18.1339 403.744 16.4987 405.288 15.0209C408.946 11.5144 412.911 8.39264 417.595 6.31148C420.165 5.1747 422.823 4.30027 425.639 3.89802C427.069 3.6969 428.499 3.48704 430.104 3.43457L430.087 3.44331ZM361.277 76.0218C360.382 75.9868 359.567 75.9956 358.795 76.3366C357.049 77.1148 355.558 78.2604 354.18 79.5633C351.794 81.8193 349.821 84.4077 348.031 87.1534C347.785 87.5294 347.856 87.6606 348.11 87.9317C349.268 89.1559 350.496 90.3189 351.654 91.5518C354.391 94.49 357.216 97.3406 359.996 100.235C360.312 100.559 360.567 100.585 360.97 100.331C364.418 98.2151 367.707 95.9415 370.339 92.811C371.216 91.7617 371.909 90.6424 372.374 89.3745C373.032 87.5994 372.541 85.8942 372.014 84.1978C371.663 83.061 371.602 82.0467 372.69 81.1897C373.558 80.5077 374.313 79.6857 375.111 78.9162C377.418 76.6951 379.69 74.4391 382.067 72.2879C383.769 70.7489 385.304 69.035 387.032 67.5135C388.05 66.6128 389.006 65.6509 389.945 64.6803C390.682 63.9195 391.419 63.1413 392.199 62.4505C393.252 61.5236 394.278 60.553 395.226 59.5561C396.533 58.192 397.989 56.994 399.287 55.6124C401.437 53.3301 403.919 51.3713 406.024 49.0366C406.41 48.6081 406.91 48.2846 407.288 47.8474C408.753 46.1859 410.209 44.5157 411.639 42.8281C412.84 41.4027 414.069 39.9949 415.174 38.4996C416.797 36.3047 418.534 34.1799 419.972 31.8451C420.121 31.6003 420.235 31.2155 419.911 30.9182C419.507 30.5509 418.885 30.9882 418.613 31.1805C416.884 32.361 415.121 33.5065 413.411 34.7308C411.823 35.8675 410.244 37.0043 408.761 38.281C407.235 39.6014 405.542 40.7382 404.068 42.111C403.226 42.9068 402.287 43.5713 401.454 44.3671C399.55 46.1859 397.743 48.0922 395.813 49.8761C394.085 51.4763 392.498 53.2339 390.761 54.8254C389.208 56.2507 387.682 57.7023 386.173 59.1626C385.041 60.2556 383.936 61.3924 382.778 62.4505C381.497 63.6135 380.304 64.8639 379.023 66.027C376.664 68.1693 374.435 70.4516 372.137 72.6639C370.891 73.8707 369.602 75.0337 368.383 76.2666C367.356 77.3072 366.295 77.4559 364.988 76.7913C363.812 76.1967 362.532 75.8556 361.251 76.0043L361.277 76.0218Z" fill="white"/>
<path d="M400.129 47.5593C401.042 46.5887 402.077 45.7317 403.016 44.7873C404.288 43.5106 405.735 42.4438 407.13 41.3158C408.314 40.3539 409.472 39.357 410.682 38.4127C411.753 37.5819 412.867 36.8212 413.963 36.0342C414.095 35.938 414.63 35.5095 414.955 35.8156C415.165 36.0167 414.955 36.4626 414.841 36.6288C414.411 37.2584 414.042 37.7481 413.577 38.3602C412.805 39.3833 411.99 40.3801 411.209 41.3945C410.402 42.4351 409.516 43.4407 408.595 44.42C406.893 46.2214 405.261 48.1014 403.445 49.7804C402.647 50.5236 400.314 52.9721 398.849 51.127C397.989 50.0689 399.375 48.3638 400.147 47.5505L400.129 47.5593ZM400.305 49.2382C400.384 49.7366 400.621 50.1476 401.2 50.1039C401.735 50.0689 402.156 49.7454 402.138 49.177C402.121 48.6086 401.744 48.2938 401.147 48.3026C400.551 48.3026 400.349 48.6873 400.305 49.2382ZM404.366 45.2595C403.761 45.207 403.533 45.6093 403.542 46.1165C403.542 46.6149 403.849 46.9209 404.402 46.9384C405.051 46.9647 405.314 46.5537 405.34 46.0203C405.366 45.4344 404.937 45.2333 404.375 45.2595H404.366Z" fill="white"/>
<path d="M363.672 92.5487C363.189 92.9422 362.707 93.3357 362.26 93.7642C361.891 94.114 361.619 94.1315 361.251 93.7642C358.988 91.4907 356.716 89.2259 354.452 86.9523C354.321 86.8212 353.996 86.6987 354.277 86.4189C355.417 85.3259 356.338 84.0317 357.61 83.0523C359.61 81.5221 363.514 82.0992 365.119 84.3203C367.848 88.6487 365.198 91.3158 363.681 92.54L363.672 92.5487ZM365.593 87.6956C365.479 87.2496 365.374 86.7949 365.242 86.3577C364.4 83.3846 360.821 82.2653 358.303 83.6295C357.137 84.2591 356.452 85.4221 355.487 86.2878C355.215 86.5326 355.382 86.725 355.575 86.9174C356.058 87.3983 356.575 87.8443 357.014 88.3602C358.33 89.8992 359.882 91.2109 361.251 92.6974C361.567 93.0384 361.9 93.1871 362.295 92.6799C362.558 92.3476 363.005 92.164 363.339 91.8842C364.646 90.7999 365.54 89.4882 365.584 87.7044L365.593 87.6956Z" fill="white"/>
</svg>
