<svg width="19" height="13" viewBox="0 0 19 13" fill="none" xmlns="http://www.w3.org/2000/svg">
<path d="M18.5804 2.02764C18.4714 1.63573 18.2588 1.27844 17.9638 0.991343C17.6688 0.704248 17.3016 0.497366 16.8989 0.3913C15.4245 0 9.49037 0 9.49037 0C9.49037 0 3.55598 0.0118444 2.08155 0.403144C1.67881 0.509217 1.31164 0.716109 1.01662 1.00322C0.721602 1.29033 0.509023 1.64763 0.400053 2.03956C-0.0459271 4.58886 -0.218931 8.4734 0.412299 10.9207C0.52128 11.3126 0.733864 11.6699 1.02888 11.957C1.3239 12.2441 1.69106 12.451 2.0938 12.5571C3.56823 12.9484 9.50246 12.9484 9.50246 12.9484C9.50246 12.9484 15.4366 12.9484 16.911 12.5571C17.3137 12.451 17.6809 12.2441 17.9759 11.957C18.271 11.6699 18.4836 11.3126 18.5926 10.9207C19.063 8.36781 19.2079 4.48565 18.5804 2.02764Z" fill="#FF0000"/>
<path d="M7.60156 9.24879L12.5243 6.47416L7.60156 3.69952V9.24879Z" fill="white"/>
</svg>
